<?xml version="1.0" encoding="UTF-8"?><svg id="b" xmlns="http://www.w3.org/2000/svg" viewBox="0 0 517.202 677.079"><defs><style>.d{fill:#d84b48;}.e{fill:#a05b4b;}.f{fill:#d19f13;}.g{fill:#3b7034;}.h{fill:#ffd04d;}.i{fill:#e5e5e5;}.j{fill:#f4ecb3;}.k{fill:#d8d8d8;}.l{stroke:#ffc1c0;stroke-width:6px;}.l,.m,.n{fill:none;stroke-miterlimit:10;}.o{fill:#ffc1c0;}.p{fill:#d6abca;}.q{fill:#86c963;}.r{fill:#fcce38;}.s{fill:#c0c1bf;}.t{fill:#378641;}.u{fill:#9ce2cf;}.v{fill:#efc02b;}.w{fill:#ea7060;}.x{fill:#d85b52;}.m{stroke:#937b79;stroke-width:9px;}.y{fill:#b5f7de;}.z{fill:#81c6b0;}.aa{fill:#74b959;}.n{stroke:#726042;stroke-width:8.335px;}</style></defs><g id="c"><rect class="aa" x=".003" y="553.996" width="500.369" height="123.084"/><rect class="z" x="169.51" y="45.176" width="49.405" height="53.082"/><circle class="f" cx="193.498" cy="73.417" r="4.301"/><rect class="h" x="180.698" y="68.972" width="25.6" height="4.906"/><path class="v" d="M201.909,61.103c-.119-1.912-.153-2.138-.153-3.027,0-4.617-3.743-8.359-8.359-8.359s-8.359,3.743-8.359,8.359c0,.779.04,1.258-.046,2.389-.492,6.758-4.293,8.507-4.293,8.507h25.6s-3.798-1.347-4.39-7.869Z"/><polygon class="u" points="241.774 277.577 144.626 277.577 161.274 90.07 225.126 90.07 241.774 277.577"/><path class="u" d="M193.27,0h0c12.956,0,24.067,9.245,26.421,21.985l.434,29.403h-52.851l-.403-29.524C169.276,9.181,180.36,0,193.27,0Z"/><polygon class="u" points="169.663 90.223 161.243 90.223 167.275 51.388 175.695 51.388 169.663 90.223"/><polygon class="u" points="225.126 90.07 216.705 90.07 211.705 51.388 220.126 51.388 225.126 90.07"/><rect class="y" x="158.986" y="90.07" width="68.429" height="4.14"/><rect class="y" x="165.761" y="47.647" width="55.476" height="4.14"/><polygon class="w" points="345.992 571.762 40.409 571.762 40.409 342.058 193.892 152.046 345.992 341.879 345.992 571.762"/><path class="x" d="M119.612,495.704v-132.617c0-45.709,29.199-85.935,72.658-100.096l.93-.303.93.303c43.459,14.161,72.658,54.387,72.658,100.096v132.617H119.612Z"/><path class="o" d="M193.2,265.843c42.098,13.718,70.588,52.966,70.588,97.242v129.617H122.612v-129.617c0-44.276,28.49-83.525,70.588-97.242M193.2,259.533l-1.859.606c-21.867,7.126-40.567,20.73-54.077,39.342-13.51,18.612-20.652,40.606-20.652,63.605v135.617h153.176v-135.617c0-22.999-7.141-44.993-20.652-63.605-13.51-18.612-32.21-32.216-54.077-39.342l-1.859-.606h0Z"/><rect class="o" x="60.784" y="495.435" width="264.831" height="4.963"/><polygon class="o" points="269.651 500.398 116.804 500.398 120.193 475.574 269.651 475.574 269.651 500.398"/><line class="l" x1="139.561" y1="214.304" x2="248.074" y2="214.304"/><polyline class="m" points="347.376 338.047 193.892 148.046 40.409 338.047 .013 337.926"/><line class="m" x1="193.795" y1="108.927" x2="193.795" y2="148.046"/><line class="m" x1="178.643" y1="126.775" x2="208.948" y2="126.775"/><polygon class="x" points="82.756 382.705 82.756 342.047 .062 342.047 .062 383.553 20.063 415.892 20.099 415.892 20.099 497.917 20.063 497.917 .062 531.103 .062 571.762 82.756 571.762 82.756 530.256 62.951 498.235 62.951 415.566 82.756 382.705"/><rect class="o" x=".003" y="342.047" width="122.609" height="4.963"/><polygon class="x" points="386.397 382.705 386.397 342.047 303.703 342.047 303.703 383.553 323.705 415.892 323.741 415.892 323.741 497.917 323.705 497.917 303.703 531.103 303.703 571.762 386.397 571.762 386.397 530.256 366.592 498.235 366.592 415.566 386.397 382.705"/><rect class="o" x="263.788" y="342.047" width="122.609" height="4.963"/><circle class="g" cx="311.323" cy="505.591" r="14.088"/><circle class="g" cx="336.681" cy="470.775" r="11.057"/><circle class="g" cx="323.727" cy="471.619" r="7.527"/><circle class="g" cx="330.785" cy="463.191" r="7.644"/><circle class="g" cx="346.895" cy="517.97" r="8.033"/><circle class="g" cx="341.787" cy="561.009" r="5.831"/><circle class="g" cx="326.519" cy="548.586" r="7.772"/><circle class="g" cx="314.868" cy="539.975" r="7.772"/><circle class="g" cx="304.587" cy="515.95" r="7.772"/><circle class="g" cx="289.712" cy="526.497" r="7.772"/><circle class="g" cx="293.831" cy="514.679" r="9.005"/><circle class="g" cx="308.81" cy="493.372" r="7.772"/><circle class="g" cx="298.9" cy="489.646" r="7.772"/><circle class="g" cx="293.494" cy="499.417" r="7.772"/><circle class="g" cx="352.388" cy="464.604" r="7.772"/><circle class="g" cx="348.012" cy="454.093" r="6.479"/><circle class="g" cx="342.576" cy="459.723" r="6.479"/><circle class="g" cx="289.464" cy="492.562" r="4.178"/><circle class="g" cx="283.613" cy="520.734" r="4.178"/><circle class="g" cx="283.237" cy="513.802" r="4.178"/><circle class="g" cx="288.626" cy="507.304" r="5.49"/><circle class="g" cx="317.334" cy="550.854" r="5.49"/><circle class="g" cx="312.705" cy="560.736" r="5.934"/><circle class="g" cx="309.852" cy="550.778" r="5.49"/><circle class="g" cx="294.395" cy="531.951" r="5.504"/><circle class="g" cx="290.768" cy="485.768" r="4.178"/><circle class="g" cx="297.208" cy="480.288" r="5.102"/><circle class="g" cx="304.025" cy="480.946" r="5.102"/><circle class="g" cx="305.048" cy="444.164" r="3.421"/><circle class="g" cx="304.006" cy="448.946" r="3.185"/><circle class="g" cx="300.701" cy="444.896" r="2.819"/><circle class="g" cx="305.259" cy="438.754" r="2.819"/><circle class="g" cx="308.744" cy="440.388" r="2.819"/><circle class="g" cx="308.411" cy="435.718" r="2.393"/><circle class="g" cx="339.655" cy="567.565" r="4.178"/><circle class="g" cx="339.242" cy="573.601" r="3.185"/><circle class="g" cx="335.319" cy="571.079" r="2.819"/><circle class="g" cx="313.842" cy="568.016" r="4.178"/><circle class="g" cx="319.878" cy="568.428" r="3.185"/><circle class="g" cx="317.356" cy="572.351" r="2.819"/><circle class="g" cx="347.041" cy="540.959" r="4.178"/><circle class="g" cx="352.218" cy="544.089" r="3.185"/><circle class="g" cx="348.181" cy="546.422" r="2.819"/><circle class="g" cx="357.174" cy="547.237" r="4.178"/><circle class="g" cx="354.045" cy="552.415" r="3.185"/><circle class="g" cx="351.711" cy="548.377" r="2.819"/><circle class="g" cx="306.423" cy="484.43" r="2.819"/><circle class="g" cx="355.353" cy="501.207" r="6.479"/><circle class="g" cx="345.76" cy="500.929" r="6.479"/><circle class="g" cx="349.999" cy="492.038" r="6.479"/><circle class="g" cx="357.791" cy="493.317" r="4.493"/><circle class="g" cx="348.862" cy="509.076" r="4.493"/><circle class="g" cx="339.906" cy="508.648" r="6.06"/><circle class="g" cx="338.639" cy="482.386" r="5.462"/><circle class="g" cx="330.801" cy="485.386" r="5.462"/><circle class="g" cx="323.977" cy="493.808" r="6.113"/><circle class="g" cx="328.798" cy="503.497" r="6.31"/><circle class="g" cx="305.65" cy="526.754" r="10.132"/><circle class="g" cx="344.114" cy="531.072" r="7.772"/><circle class="g" cx="335.446" cy="550.859" r="7.772"/><circle class="g" cx="337.831" cy="541.745" r="7.772"/><ellipse class="g" cx="326.985" cy="524.255" rx="19.313" ry="17.823" transform="translate(-236.217 778.355) rotate(-82.331)"/><ellipse class="g" cx="341.001" cy="558.632" rx="19.313" ry="17.823" transform="translate(-258.14 822.034) rotate(-82.331)"/><ellipse class="g" cx="299.9" cy="536.037" rx="19.313" ry="17.823" transform="translate(-271.364 761.721) rotate(-82.331)"/><ellipse class="g" cx="319.197" cy="481.727" rx="12.222" ry="12.295" transform="translate(-200.818 733.784) rotate(-82.331)"/><circle class="g" cx="340.152" cy="437.428" r="5.854"/><circle class="g" cx="337.904" cy="445.6" r="4.462"/><circle class="g" cx="333.274" cy="439.926" r="3.949"/><circle class="g" cx="344.053" cy="422.84" r="4.792"/><circle class="g" cx="342.593" cy="429.54" r="4.462"/><circle class="g" cx="337.963" cy="423.865" r="3.949"/><circle class="g" cx="344.349" cy="415.26" r="3.949"/><circle class="g" cx="349.231" cy="417.549" r="3.949"/><circle class="g" cx="348.765" cy="411.007" r="3.353"/><circle class="g" cx="341.291" cy="450.268" r="7.275"/><circle class="g" cx="333.102" cy="446.416" r="6.065"/><circle class="g" cx="333.231" cy="453.741" r="6.065"/><circle class="g" cx="349.969" cy="426.734" r="5.854"/><circle class="g" cx="348.453" cy="435.073" r="4.462"/><circle class="g" cx="355.086" cy="431.966" r="3.949"/><circle class="g" cx="352.777" cy="411.896" r="4.792"/><circle class="g" cx="351.188" cy="418.567" r="4.462"/><circle class="g" cx="352.416" cy="422.542" r="3.949"/><circle class="g" cx="355.794" cy="404.937" r="3.949"/><circle class="g" cx="350.402" cy="404.884" r="3.949"/><circle class="g" cx="353.658" cy="399.191" r="3.353"/><circle class="g" cx="343.378" cy="437.812" r="7.275"/><circle class="g" cx="352.428" cy="437.889" r="6.065"/><circle class="g" cx="349.137" cy="444.435" r="6.065"/><circle class="g" cx="327.841" cy="414.976" r="4.178"/><circle class="g" cx="325.817" cy="420.677" r="3.185"/><circle class="g" cx="322.815" cy="416.397" r="2.819"/><circle class="g" cx="331.374" cy="404.793" r="3.421"/><circle class="g" cx="329.988" cy="409.487" r="3.185"/><circle class="g" cx="326.986" cy="405.207" r="2.819"/><circle class="g" cx="331.979" cy="399.412" r="2.819"/><circle class="g" cx="335.335" cy="401.295" r="2.819"/><circle class="g" cx="335.342" cy="396.614" r="2.393"/><circle class="g" cx="323.916" cy="434.393" r="7.388"/><circle class="g" cx="327.986" cy="424.175" r="5.193"/><circle class="g" cx="322.356" cy="421.008" r="4.329"/><circle class="g" cx="322.068" cy="426.229" r="4.329"/><circle class="g" cx="329.979" cy="439.408" r="3.65"/><circle class="g" cx="327.327" cy="444.349" r="3.65"/><circle class="g" cx="322.784" cy="448.195" r="3.65"/><ellipse class="g" cx="319.972" cy="444.496" rx="5.48" ry="5.447" transform="translate(-191.035 247.442) rotate(-33.164)"/><ellipse class="g" cx="320.139" cy="461.578" rx="4.575" ry="4.547" transform="translate(-200.352 250.315) rotate(-33.164)"/><ellipse class="g" cx="318.219" cy="454.321" rx="5.686" ry="5.652" transform="translate(-196.695 248.083) rotate(-33.164)"/><circle class="g" cx="278.638" cy="551.271" r="9.318"/><circle class="g" cx="289.234" cy="553.993" r="6.343"/><circle class="g" cx="284.705" cy="545.911" r="6.442"/><circle class="g" cx="266.594" cy="543.707" r="6.549"/><circle class="g" cx="271.86" cy="535.687" r="5.46"/><circle class="g" cx="275.482" cy="541.198" r="5.46"/><circle class="g" cx="280.971" cy="523.113" r="4.933"/><circle class="g" cx="281.556" cy="530.232" r="3.76"/><circle class="g" cx="286.277" cy="526.256" r="3.328"/><circle class="g" cx="280.02" cy="510.423" r="4.039"/><circle class="g" cx="280.182" cy="516.2" r="3.76"/><circle class="g" cx="284.903" cy="512.224" r="3.328"/><circle class="g" cx="280.958" cy="504.1" r="3.328"/><circle class="g" cx="276.557" cy="505.234" r="3.328"/><circle class="g" cx="277.965" cy="499.889" r="2.825"/><circle class="g" cx="278.023" cy="533.569" r="6.131"/><circle class="g" cx="285.406" cy="531.657" r="5.111"/><circle class="g" cx="284.156" cy="537.703" r="5.111"/><circle class="g" cx="274.512" cy="512.724" r="4.933"/><circle class="g" cx="274.465" cy="519.867" r="3.76"/><circle class="g" cx="269.458" cy="516.258" r="3.328"/><circle class="g" cx="274.504" cy="499.998" r="4.039"/><circle class="g" cx="274.778" cy="505.771" r="3.76"/><circle class="g" cx="273.14" cy="508.87" r="3.328"/><circle class="g" cx="273.092" cy="493.764" r="3.328"/><circle class="g" cx="277.565" cy="494.562" r="3.328"/><circle class="g" cx="275.758" cy="489.339" r="2.825"/><circle class="g" cx="278.24" cy="522.927" r="6.131"/><circle class="g" cx="270.734" cy="521.578" r="5.111"/><circle class="g" cx="272.436" cy="527.512" r="5.111"/><circle class="g" cx="289.582" cy="462.143" r="4.178"/><circle class="g" cx="290.078" cy="468.172" r="3.185"/><circle class="g" cx="294.077" cy="464.805" r="2.819"/><circle class="g" cx="288.776" cy="451.395" r="3.421"/><circle class="g" cx="288.914" cy="456.287" r="3.185"/><circle class="g" cx="292.912" cy="452.92" r="2.819"/><circle class="g" cx="289.571" cy="446.039" r="2.819"/><circle class="g" cx="285.844" cy="446.999" r="2.819"/><circle class="g" cx="287.037" cy="442.472" r="2.393"/><circle class="g" cx="288.401" cy="481.917" r="7.388"/><circle class="g" cx="287.085" cy="470.998" r="5.193"/><circle class="g" cx="293.339" cy="469.379" r="4.329"/><circle class="g" cx="292.28" cy="474.5" r="4.329"/><circle class="g" cx="281.256" cy="485.211" r="3.65"/><circle class="g" cx="282.553" cy="490.667" r="3.65"/><circle class="g" cx="285.958" cy="495.549" r="3.65"/><ellipse class="g" cx="289.625" cy="492.694" rx="5.447" ry="5.48" transform="translate(-255.252 320.244) rotate(-41.989)"/><ellipse class="g" cx="285.087" cy="509.163" rx="4.547" ry="4.575" transform="translate(-267.435 321.436) rotate(-41.989)"/><ellipse class="g" cx="288.802" cy="502.64" rx="5.652" ry="5.686" transform="translate(-262.118 322.247) rotate(-41.989)"/><circle class="g" cx="280.193" cy="432.004" r="3.099"/><circle class="g" cx="279.838" cy="436.477" r="2.362"/><circle class="g" cx="276.865" cy="433.988" r="2.091"/><circle class="g" cx="280.769" cy="424.03" r="2.537"/><circle class="g" cx="280.677" cy="427.66" r="2.362"/><circle class="g" cx="277.704" cy="425.17" r="2.091"/><circle class="g" cx="280.169" cy="420.06" r="2.091"/><circle class="g" cx="282.935" cy="420.764" r="2.091"/><circle class="g" cx="282.042" cy="417.409" r="1.775"/><circle class="g" cx="281.109" cy="446.669" r="5.48"/><circle class="g" cx="282.063" cy="438.568" r="3.852"/><circle class="g" cx="277.422" cy="437.379" r="3.211"/><circle class="g" cx="278.217" cy="441.176" r="3.211"/><circle class="g" cx="286.416" cy="449.098" r="2.707"/><circle class="g" cx="285.464" cy="453.147" r="2.707"/><circle class="g" cx="282.949" cy="456.775" r="2.707"/><ellipse class="g" cx="280.223" cy="454.665" rx="4.064" ry="4.04" transform="translate(-245.442 360.213) rotate(-48.167)"/><ellipse class="g" cx="283.623" cy="466.871" rx="3.393" ry="3.373" transform="translate(-253.405 366.811) rotate(-48.167)"/><ellipse class="g" cx="280.854" cy="462.041" rx="4.218" ry="4.192" transform="translate(-250.728 363.14) rotate(-48.167)"/><circle class="g" cx="305.582" cy="461.854" r="7.388"/><circle class="g" cx="301.077" cy="472.191" r="5.193"/><circle class="g" cx="308.111" cy="475.09" r="4.329"/><circle class="g" cx="308.019" cy="469.861" r="4.329"/><circle class="g" cx="299.171" cy="457.293" r="3.65"/><circle class="g" cx="301.457" cy="452.172" r="3.65"/><ellipse class="g" cx="308.365" cy="450.622" rx="6.637" ry="6.598" transform="translate(-210.096 279.311) rotate(-37.331)"/><path class="t" d="M338.245,566.6c.158-.94.225-1.908.168-2.9-.413-7.111-6.513-12.541-13.625-12.128-.765.044-1.506.167-2.227.337-1.089-4.891-5.58-8.417-10.744-8.117-2.749.16-5.179,1.38-6.935,3.232-.918-.204-1.876-.295-2.861-.238-3.445.2-6.391,2.061-8.13,4.754-1.137-.343-2.347-.507-3.601-.434-.125.007-.245.029-.369.04-.003-.081.003-.161-.002-.243-.333-5.735-5.253-10.114-10.988-9.781-4.295.25-7.829,3.072-9.193,6.883-1.918-1.488-4.357-2.323-6.971-2.171-5.735.333-10.114,5.253-9.781,10.988l.029,22.254h85.42v-12.455l-.19-.022Z"/><path class="t" d="M332.986,579.041h13.698c2.361-1.965,3.864-4.925,3.864-8.237,0-5.917-4.797-10.713-10.713-10.713s-10.713,4.797-10.713,10.713c0,3.312,1.504,6.272,3.864,8.237Z"/><path class="t" d="M221.042,566.6c-.158-.94-.225-1.908-.168-2.9.413-7.111,6.513-12.541,13.625-12.128.765.044,1.506.167,2.227.337,1.089-4.891,5.58-8.417,10.744-8.117,2.749.16,5.179,1.38,6.935,3.232.918-.204,1.876-.295,2.861-.238,3.445.2,6.391,2.061,8.13,4.754,1.137-.343,2.347-.507,3.601-.434.125.007.245.029.369.04.003-.081-.003-.161.002-.243.333-5.735,5.253-10.114,10.988-9.781,4.295.25,7.829,3.072,9.193,6.883,1.918-1.488,4.357-2.323,6.971-2.171,5.735.333,10.114,5.253,9.781,10.988l-.029,22.254h-85.42v-12.455s.19-.022.19-.022Z"/><path class="t" d="M226.3,579.041h-13.698c-2.361-1.965-3.864-4.925-3.864-8.237,0-5.917,4.797-10.713,10.713-10.713,5.917,0,10.713,4.797,10.713,10.713,0,3.312-1.504,6.272-3.864,8.237Z"/><path class="t" d="M219.844,566.6c.158-.94.225-1.908.168-2.9-.413-7.111-6.513-12.541-13.625-12.128-.765.044-1.506.167-2.227.337-1.089-4.891-5.58-8.417-10.744-8.117-2.749.16-5.179,1.38-6.935,3.232-.918-.204-1.876-.295-2.861-.238-3.445.2-6.391,2.061-8.13,4.754-1.137-.343-2.347-.507-3.601-.434-.125.007-.245.029-.369.04-.003-.081.003-.161-.002-.243-.333-5.735-5.253-10.114-10.988-9.781-4.295.25-7.829,3.072-9.193,6.883-1.918-1.488-4.357-2.323-6.971-2.171-5.735.333-10.114,5.253-9.781,10.988l.029,22.254h85.42v-12.455l-.19-.022Z"/><path class="t" d="M214.586,579.041h13.698c2.361-1.965,3.864-4.925,3.864-8.237,0-5.917-4.797-10.713-10.713-10.713s-10.713,4.797-10.713,10.713c0,3.312,1.504,6.272,3.864,8.237Z"/><path class="t" d="M102.641,566.6c-.158-.94-.225-1.908-.168-2.9.413-7.111,6.513-12.541,13.625-12.128.765.044,1.506.167,2.227.337,1.089-4.891,5.58-8.417,10.744-8.117,2.749.16,5.179,1.38,6.935,3.232.918-.204,1.876-.295,2.861-.238,3.445.2,6.391,2.061,8.13,4.754,1.137-.343,2.347-.507,3.601-.434.125.007.245.029.369.04.003-.081-.003-.161.002-.243.333-5.735,5.253-10.114,10.988-9.781,4.295.25,7.829,3.072,9.193,6.883,1.918-1.488,4.357-2.323,6.971-2.171,5.735.333,10.114,5.253,9.781,10.988l-.029,22.254h-85.42v-12.455s.19-.022.19-.022Z"/><path class="t" d="M107.9,579.041h-13.698c-2.361-1.965-3.864-4.925-3.864-8.237,0-5.917,4.797-10.713,10.713-10.713,5.917,0,10.713,4.797,10.713,10.713,0,3.312-1.504,6.272-3.864,8.237Z"/><line class="n" x1="431.665" y1="443.44" x2="433.495" y2="412.584"/><path class="n" d="M406.823,460.699l31.092-20.01c13.58-8.739,21.905-23.676,22.197-39.822l.318-17.571"/><path class="n" d="M413.099,563.206v-76.913c0-8.435-2.913-16.611-8.246-23.146l-28.887-35.396,88.909-93.616-34.518-105.122"/><polyline class="n" points="381.196 275.559 368.121 331.519 372.828 403.693"/><line class="n" x1="412.314" y1="344.333" x2="381.719" y2="314.522"/><line class="n" x1="421.989" y1="301.709" x2="400.547" y2="328.904"/><circle class="g" cx="474.242" cy="275.805" r="42.022"/><circle class="g" cx="412.411" cy="392.351" r="34.535"/><circle class="g" cx="361.123" cy="250.518" r="25.089"/><circle class="g" cx="411.436" cy="147.258" r="24.273"/><circle class="g" cx="451.089" cy="169.056" r="24.273"/><circle class="g" cx="492.929" cy="239.137" r="24.273"/><circle class="g" cx="489.268" cy="310.788" r="24.273"/><circle class="g" cx="366.364" cy="418.002" r="24.273"/><circle class="g" cx="384.291" cy="448.713" r="20.235"/><circle class="g" cx="398.771" cy="429.021" r="20.235"/><circle class="g" cx="450.423" cy="432.55" r="13.05"/><circle class="g" cx="456.145" cy="414.542" r="9.947"/><circle class="g" cx="466.181" cy="425.1" r="8.803"/><circle class="g" cx="341.929" cy="305.935" r="20.235"/><circle class="g" cx="371.739" cy="302.797" r="20.235"/><circle class="g" cx="362.326" cy="332.085" r="20.235"/><circle class="g" cx="337.671" cy="331.374" r="14.033"/><circle class="g" cx="358.744" cy="278.87" r="14.033"/><circle class="g" cx="386.645" cy="276.461" r="18.928"/><circle class="g" cx="401.512" cy="357.226" r="17.059"/><circle class="g" cx="424.524" cy="344.675" r="17.059"/><circle class="g" cx="442.135" cy="315.761" r="19.092"/><circle class="g" cx="423.175" cy="287.778" r="19.708"/><circle class="g" cx="485.135" cy="206.137" r="31.647"/><circle class="g" cx="364.272" cy="208.804" r="24.273"/><circle class="g" cx="379.271" cy="173.146" r="24.273"/><ellipse class="g" cx="420.134" cy="222.765" rx="55.667" ry="60.322"/><ellipse class="g" cx="461.968" cy="351.162" rx="38.403" ry="38.173"/><circle class="p" cx="447.878" cy="207.308" r="6.276"/><circle class="p" cx="410.729" cy="172.928" r="6.276"/><circle class="p" cx="367.187" cy="213.16" r="6.276"/><circle class="p" cx="496.717" cy="283.643" r="6.276"/><circle class="p" cx="455.831" cy="334.764" r="6.276"/><circle class="p" cx="380.019" cy="436.772" r="6.276"/><circle class="p" cx="421.205" cy="396.371" r="6.276"/><circle class="p" cx="402.377" cy="368.129" r="6.276"/><circle class="p" cx="366.76" cy="405.801" r="6.276"/><circle class="p" cx="457.565" cy="422.864" r="6.276"/><circle class="p" cx="385.282" cy="259.034" r="6.276"/><circle class="p" cx="347.47" cy="327.535" r="6.276"/><circle class="p" cx="357.661" cy="295.171" r="6.276"/><circle class="p" cx="436.159" cy="276.703" r="6.276"/><circle class="p" cx="496.832" cy="215.072" r="6.276"/><circle class="p" cx="472.197" cy="370.09" r="6.276"/><path class="q" d="M470.038,577.348c0-.88-.642-1.578-1.456-1.676-.084-.044-.164-.092-.252-.133-.008-.139-.023-.276-.032-.415.664-.403,1.222-.869,1.159-1.626-.062-.764-.697-1.133-1.426-1.421-.015-.131-.034-.261-.05-.392.649-.442,1.191-.941,1.084-1.699-.105-.768-.772-1.1-1.524-1.349-.021-.125-.045-.249-.066-.373.629-.481,1.152-1.012,1.001-1.771-.151-.766-.844-1.058-1.616-1.263-.027-.118-.054-.235-.082-.353.608-.519,1.107-1.081.914-1.839-.198-.759-.915-1.009-1.702-1.17-.032-.111-.062-.223-.095-.333.582-.555,1.056-1.148.818-1.893-.238-.753-.975-.961-1.778-1.077-.037-.106-.07-.213-.108-.319.553-.589.996-1.209.716-1.946-.284-.739-1.035-.903-1.844-.973-.042-.101-.078-.205-.121-.305.52-.62.932-1.266.61-1.988-.324-.727-1.091-.846-1.909-.869-.045-.093-.095-.183-.141-.275.494-.656.881-1.331.514-2.039-.369-.717-1.153-.786-1.981-.759-.046-.084-.096-.166-.143-.249.462-.688.819-1.391.409-2.086-.413-.697-1.207-.718-2.039-.644-.048-.076-.097-.151-.145-.227.426-.718.753-1.444.301-2.119-.451-.678-1.254-.651-2.089-.527-.049-.069-.098-.139-.147-.208.389-.746.678-1.494.188-2.144-.49-.655-1.297-.58-2.125-.409-.051-.064-.1-.129-.151-.192.349-.769.601-1.537.071-2.162-.534-.626-1.334-.502-2.151-.286-.054-.059-.104-.122-.157-.181.308-.789.518-1.571-.048-2.165-.568-.603-1.363-.433-2.169-.166-.054-.054-.112-.104-.166-.158.265-.81.437-1.609-.164-2.176-.607-.573-1.4-.349-2.196-.035-.053-.047-.107-.091-.159-.137.222-.829.356-1.644-.28-2.182-.636-.541-1.425-.269-2.211.093-.05-.041-.102-.08-.153-.12.178-.846.271-1.675-.399-2.178-.672-.508-1.446-.187-2.212.222-.05-.035-.1-.071-.15-.107.133-.858.181-1.694-.516-2.163-.703-.468-1.46-.1-2.202.35-.051-.032-.1-.065-.151-.097.084-.866.088-1.707-.638-2.136-.728-.429-1.464-.018-2.182.474-.052-.029-.103-.06-.155-.089.035-.869-.007-1.709-.757-2.099-.757-.39-1.461.063-2.149.596-.053-.026-.108-.047-.161-.073-.014-.873-.105-1.712-.875-2.058-.771-.346-1.463.153-2.125.727-.049-.02-.099-.038-.148-.059-.062-.877-.197-1.718-.991-2.022-.813-.312-1.464.239-2.092.855-.046-.016-.093-.031-.139-.047-.111-.876-.291-1.715-1.105-1.975-.822-.258-1.449.325-2.046.978-.045-.013-.09-.026-.135-.038-.16-.872-.385-1.703-1.214-1.916-.829-.206-1.431.408-1.993,1.095-.044-.01-.089-.021-.134-.031-.209-.863-.481-1.682-1.323-1.848-.823-.155-1.401.49-1.925,1.207-.045-.008-.09-.017-.135-.024-.259-.85-.577-1.653-1.425-1.771-.86-.115-1.377.567-1.855,1.311-.045-.005-.091-.012-.136-.017-.307-.832-.669-1.614-1.523-1.686-.851-.083-1.338.637-1.775,1.409-.048-.003-.094-.008-.142-.011-.35-.813-.757-1.571-1.613-1.594h-.039c-.829,0-1.266.722-1.655,1.5-.026,0-.05-.002-.075-.002-.025,0-.05.002-.075.002-.387-.778-.823-1.5-1.653-1.5h-.039c-.855.023-1.26.781-1.61,1.594-.047.003-.093.008-.141.011-.432-.773-.872-1.517-1.779-1.409-.853.071-1.216.854-1.522,1.685-.046.005-.092.012-.139.018-.483-.746-1.039-1.429-1.851-1.311-.851.118-1.17.921-1.428,1.77-.046.008-.092.017-.138.025-.521-.716-1.083-1.369-1.927-1.207-.842.166-1.116.985-1.324,1.848-.046.01-.091.021-.137.031-.564-.688-1.167-1.31-1.989-1.094-.831.213-1.057,1.044-1.218,1.916-.046.013-.092.026-.138.039-.601-.654-1.24-1.235-2.045-.977-.815.258-.995,1.097-1.107,1.975-.047.016-.095.032-.143.048-.631-.614-1.294-1.158-2.092-.853-.794.303-.927,1.144-.989,2.021-.05.021-.1.039-.15.059-.663-.573-1.353-1.075-2.125-.726-.772.345-.863,1.186-.875,2.059-.053.025-.108.048-.16.073-.691-.531-1.403-.98-2.151-.594-.748.387-.79,1.228-.755,2.098-.052.029-.102.06-.154.088-.716-.492-1.451-.9-2.182-.473-.725.429-.721,1.27-.638,2.136-.051.032-.1.065-.151.097-.742-.451-1.5-.822-2.2-.35-.701.468-.653,1.305-.519,2.163-.05.035-.1.072-.15.107-.768-.406-1.543-.73-2.214-.221-.668.504-.576,1.331-.397,2.177-.051.04-.103.08-.154.121-.787-.361-1.574-.629-2.212-.093-.634.538-.5,1.353-.277,2.182-.052.047-.106.091-.159.137-.798-.314-1.593-.537-2.194.035-.603.567-.431,1.366-.165,2.176-.054.054-.112.105-.166.159-.805-.263-1.6-.433-2.17.166-.564.597-.354,1.378-.046,2.166-.054.059-.104.121-.157.181-.815-.218-1.618-.341-2.153.288-.526.626-.274,1.392.075,2.16-.052.064-.1.129-.151.193-.827-.17-1.633-.245-2.123.407-.495.652-.204,1.402.186,2.147-.049.069-.098.138-.148.208-.829-.121-1.634-.149-2.087.526-.454.675-.128,1.402.3,2.121-.048.075-.097.15-.145.226-.832-.073-1.627-.053-2.041.646-.409.694-.051,1.396.411,2.083-.047.084-.097.165-.143.249-.825-.024-1.61.044-1.98.758-.367.709.02,1.384.514,2.04-.046.093-.096.183-.141.276-.816.023-1.58.142-1.907.868-.324.721.087,1.367.609,1.988-.042.1-.078.204-.12.304-.809.069-1.561.234-1.844.975-.281.736.164,1.356.717,1.944-.037.104-.07.211-.107.315-.802.115-1.539.323-1.778,1.076-.237.747.237,1.338.819,1.893-.033.11-.062.221-.094.332-.788.16-1.504.411-1.702,1.172-.193.755.307,1.317.914,1.835-.028.116-.054.233-.081.35-.773.205-1.466.497-1.617,1.262-.152.76.372,1.291,1.002,1.772-.022.123-.045.246-.066.369-.753.248-1.42.578-1.524,1.342-.107.762.435,1.261,1.084,1.704-.016.131-.035.261-.05.392-.728.288-1.363.657-1.426,1.42-.064.758.495,1.224,1.159,1.626-.009.138-.024.275-.032.414-.702.327-1.305.73-1.324,1.487-.016.564-.022,1.052.503,1.623.424.461,1.862.43,1.862.43h122.409c0-.007,0-.014,0-.021.887-.019,1.602-.772,1.602-1.706Z"/><rect class="s" x="19.138" y="510.774" width="54.662" height="91.471"/><rect class="e" x="19.138" y="602.245" width="58.662" height="60.999"/><rect class="i" x="23.138" y="510.774" width="54.662" height="91.471"/><rect class="s" x="102.192" y="510.774" width="54.662" height="91.471"/><rect class="e" x="102.192" y="602.245" width="58.662" height="60.999"/><rect class="k" x="106.192" y="510.774" width="54.662" height="91.471"/><path class="s" d="M293.636,530.232h38.419v72.013h-54.662v-55.77c0-8.965,7.278-16.244,16.244-16.244Z"/><rect class="e" x="277.393" y="602.245" width="85.159" height="60.999"/><path class="i" d="M298.218,530.232h47.508c9.286,0,16.825,7.539,16.825,16.825v55.188h-81.158v-55.188c0-9.286,7.539-16.825,16.825-16.825Z"/><path class="s" d="M454.145,504.009h0c15.084,0,27.331,12.247,27.331,27.331v70.906h-54.662v-70.906c0-15.084,12.247-27.331,27.331-27.331Z"/><rect class="e" x="426.814" y="602.245" width="58.662" height="60.999"/><path class="k" d="M458.145,504.009h0c15.084,0,27.331,12.247,27.331,27.331v70.906h-54.662v-70.906c0-15.084,12.247-27.331,27.331-27.331Z"/><circle class="g" cx="60.252" cy="601.754" r="6.479"/><circle class="g" cx="66.76" cy="608.807" r="6.479"/><circle class="g" cx="57.439" cy="611.992" r="6.479"/><circle class="g" cx="52.906" cy="605.526" r="4.493"/><circle class="g" cx="70.417" cy="600.894" r="4.493"/><circle class="g" cx="76.372" cy="607.597" r="6.06"/><circle class="g" cx="456.084" cy="614.76" r="6.479"/><circle class="g" cx="446.491" cy="614.482" r="6.479"/><circle class="g" cx="450.729" cy="605.591" r="6.479"/><circle class="g" cx="458.522" cy="606.87" r="4.493"/><circle class="g" cx="449.592" cy="622.629" r="4.493"/><circle class="g" cx="440.636" cy="622.202" r="6.06"/><circle class="g" cx="25.818" cy="603.574" r="6.479"/><circle class="g" cx="32.95" cy="609.996" r="6.479"/><circle class="g" cx="23.964" cy="614.029" r="6.479"/><circle class="g" cx="18.852" cy="608.01" r="4.493"/><circle class="g" cx="35.86" cy="601.779" r="4.493"/><circle class="g" cx="42.409" cy="607.903" r="6.06"/><circle class="g" cx="355.343" cy="598.38" r="6.479"/><circle class="g" cx="353.884" cy="607.866" r="6.479"/><circle class="g" cx="345.584" cy="602.563" r="6.479"/><circle class="g" cx="347.814" cy="594.988" r="4.493"/><circle class="g" cx="362.352" cy="605.792" r="4.493"/><circle class="g" cx="360.823" cy="614.627" r="6.06"/><circle class="j" cx="352.308" cy="594.988" r="3.392"/><circle class="j" cx="357.858" cy="605.792" r="2.073"/><circle class="j" cx="345.584" cy="609.044" r="2.711"/><circle class="g" cx="474.546" cy="604.336" r="6.479"/><circle class="g" cx="473.087" cy="613.822" r="6.479"/><circle class="g" cx="464.787" cy="608.52" r="6.479"/><circle class="g" cx="467.016" cy="600.944" r="4.493"/><circle class="g" cx="481.555" cy="611.748" r="4.493"/><circle class="g" cx="480.026" cy="620.583" r="6.06"/><circle class="d" cx="471.51" cy="600.944" r="3.392"/><circle class="d" cx="477.061" cy="611.748" r="2.073"/><circle class="d" cx="464.787" cy="615" r="2.711"/><circle class="g" cx="133.273" cy="610.269" r="6.479"/><circle class="g" cx="123.68" cy="609.991" r="6.479"/><circle class="g" cx="127.918" cy="601.101" r="6.479"/><circle class="g" cx="135.711" cy="602.379" r="4.493"/><circle class="g" cx="126.781" cy="618.139" r="4.493"/><circle class="g" cx="117.825" cy="617.711" r="6.06"/><circle class="g" cx="151.735" cy="599.845" r="6.479"/><circle class="g" cx="150.276" cy="609.331" r="6.479"/><circle class="g" cx="141.976" cy="604.029" r="6.479"/><circle class="g" cx="144.205" cy="596.453" r="4.493"/><circle class="g" cx="158.744" cy="607.258" r="4.493"/><circle class="g" cx="157.215" cy="616.093" r="6.06"/><circle class="r" cx="148.699" cy="596.453" r="3.392"/><circle class="r" cx="154.25" cy="607.258" r="2.073"/><circle class="r" cx="141.976" cy="610.509" r="2.711"/></g></svg>