<svg width="400" height="400" viewBox="0 0 400 400" fill="none" xmlns="http://www.w3.org/2000/svg">
<g clip-path="url(#clip0_66_158)">
<mask id="mask0_66_158" style="mask-type:luminance" maskUnits="userSpaceOnUse" x="0" y="0" width="400" height="400">
<path d="M400 0H0V400H400V0Z" fill="white"/>
</mask>
<g mask="url(#mask0_66_158)">
<path d="M207.46 285.06C237.23 285.06 237.23 265.26 237.23 265.26V207.43H177.69V265.26C177.69 265.26 177.69 285.06 207.46 285.06Z" fill="#EFB499"/>
<path d="M303.88 135.899C303.88 135.899 310.85 119.789 308.88 78.6388C305.55 9.17876 259.07 21.9488 259.07 21.9488C259.07 21.9488 222.46 -4.02124 178.9 9.17876C153.18 16.9788 118.44 39.2288 110.45 66.7588C102.46 94.2888 107.75 127.879 107.75 127.879L303.88 135.899Z" fill="#B28E46"/>
<path d="M299.17 164.877C310.564 164.877 319.8 155.641 319.8 144.247C319.8 132.854 310.564 123.617 299.17 123.617C287.776 123.617 278.54 132.854 278.54 144.247C278.54 155.641 287.776 164.877 299.17 164.877Z" fill="#EFB499"/>
<path d="M115.75 164.877C127.144 164.877 136.38 155.641 136.38 144.247C136.38 132.854 127.144 123.617 115.75 123.617C104.356 123.617 95.1201 132.854 95.1201 144.247C95.1201 155.641 104.356 164.877 115.75 164.877Z" fill="#EFB499"/>
<path d="M299.17 129.367C299.17 185.287 267.62 237.147 207.46 237.147C147.3 237.147 115.75 185.287 115.75 129.367C115.75 73.4467 156.81 34.6367 207.46 34.6367C258.11 34.6367 299.17 73.4467 299.17 129.367Z" fill="#EFB499"/>
<path d="M281.431 122.297V165.117C281.431 194.447 249.891 194.437 236.621 182.577C228.051 174.917 220.981 176.147 206.541 176.147C192.101 176.147 185.031 174.917 176.461 182.577C163.181 194.447 131.951 194.457 131.951 165.117V122.297H113.771V136.127C113.771 210.837 156.751 258.717 206.531 258.717C256.311 258.717 299.291 210.837 299.291 136.127V122.297H281.421H281.431ZM227.951 202.887C227.951 210.367 221.891 216.437 214.401 216.437H198.771C191.291 216.437 185.221 210.377 185.221 202.887V190.337C185.221 190.337 194.781 194.447 206.581 194.447C218.381 194.447 227.941 190.337 227.941 190.337V202.887H227.951Z" fill="#D8AE64"/>
<path d="M336.66 283.797C359.66 330.437 381.82 377.187 401.93 425.267C410.63 446.647 419.57 468.207 424.95 491.197C425.43 493.757 425.98 496.347 426.32 498.927C426.58 501.427 426.93 504.107 426.93 506.617C426.74 567.477 418.81 629.997 417.58 689.947L374.84 692.347C370.76 657.977 369.11 623.677 366.8 589.507C365.39 568.517 363.85 547.957 361.59 527.317C361.08 522.257 360.22 515.587 359.61 510.567L359.52 509.837C359.39 510.007 359.3 510.227 359.33 510.447C359.12 510.007 358.92 509.557 358.75 509.107C354.75 499.227 350.15 490.417 344.76 480.477C324.94 444.437 302.53 409.387 280.06 374.737C271.21 361.167 261.51 346.527 252.39 333.077L336.67 283.797H336.66Z" fill="#EFB499"/>
<path d="M167.96 336.968C148.85 363.588 129.01 392.148 110.89 419.318C95.1401 443.108 79.6701 466.658 66.0801 491.448C64.8901 493.658 62.5701 498.168 61.4701 500.408C60.9501 501.438 60.3301 502.998 59.6501 503.928C59.7001 503.428 59.6901 502.898 59.5401 502.418L59.5101 502.608L59.4501 502.988C57.7501 513.778 55.7901 528.608 54.5501 539.458C48.8701 588.248 46.6301 643.428 40.0701 692.348L-2.66988 689.948C-3.76988 657.108 -7.21988 623.588 -10.0699 589.428C-12.6499 559.418 -14.7799 527.758 -15.1299 497.388C-14.9399 493.288 -14.3499 488.978 -13.5199 484.948C-12.4399 479.438 -10.7199 473.348 -9.08988 467.998C-4.28988 452.688 1.81012 437.068 7.78012 422.378C25.9901 378.178 46.3601 334.688 67.0301 291.718L72.8101 279.898L167.94 336.958L167.96 336.968Z" fill="#EFB499"/>
<path d="M129.172 277.294L154.697 287.472L88.5592 453.332L-9.92002 414.063L27.1269 321.157C43.1836 280.89 88.9049 261.237 129.172 277.294Z" fill="#F2F0F0"/>
<path d="M409.293 414.047L310.814 453.316L244.676 287.456L270.201 277.278C310.468 261.221 356.189 280.874 372.246 321.141L409.293 414.047Z" fill="#F2F0F0"/>
<path d="M336.37 354.587C333.44 336.517 341.46 283.787 313.74 274.537C264.83 258.217 218.5 260.517 207.48 260.517C196.46 260.517 150.13 258.217 101.22 274.537C73.4997 283.777 81.5197 336.507 78.5797 354.587C68.0897 419.087 98.6997 579.947 118.91 610.697C123.42 617.567 173.15 622.827 207.46 622.827C241.77 622.827 291.5 617.557 296.01 610.697C313.53 584.057 346.85 419.097 336.37 354.587Z" fill="#EFB499"/>
<path d="M250.35 150.057C250.35 147.092 247.946 144.688 244.98 144.688C242.015 144.688 239.61 147.092 239.61 150.057V153.727C239.61 156.693 242.015 159.098 244.98 159.098C247.946 159.098 250.35 156.693 250.35 153.727V150.057Z" fill="#5E5E5E"/>
<path d="M256.59 139.896C256.59 139.896 254.15 134.656 245.01 134.656C235.87 134.656 233.43 139.896 233.43 139.896" stroke="#976236" stroke-width="7.67" stroke-miterlimit="10" stroke-linecap="round"/>
<path d="M246.64 153.74C247.878 153.74 248.88 152.119 248.88 150.12C248.88 148.121 247.878 146.5 246.64 146.5C245.403 146.5 244.4 148.121 244.4 150.12C244.4 152.119 245.403 153.74 246.64 153.74Z" fill="white"/>
<path d="M175.31 150.057C175.31 147.092 172.906 144.688 169.94 144.688C166.975 144.688 164.57 147.092 164.57 150.057V153.727C164.57 156.693 166.975 159.098 169.94 159.098C172.906 159.098 175.31 156.693 175.31 153.727V150.057Z" fill="#5E5E5E"/>
<path d="M158.33 139.896C158.33 139.896 160.77 134.656 169.91 134.656C179.05 134.656 181.49 139.896 181.49 139.896" stroke="#976236" stroke-width="7.67" stroke-miterlimit="10" stroke-linecap="round"/>
<path d="M171.61 153.74C172.847 153.74 173.85 152.119 173.85 150.12C173.85 148.121 172.847 146.5 171.61 146.5C170.373 146.5 169.37 148.121 169.37 150.12C169.37 152.119 170.373 153.74 171.61 153.74Z" fill="white"/>
<path d="M117.07 151.738L113.33 126.358L118.11 71.7378L143.65 60.7578C143.65 60.7578 134.66 122.298 128.17 143.958C125.37 153.308 117.07 151.738 117.07 151.738Z" fill="#B28E46"/>
<path d="M294.891 151.738L300.451 119.758L291.511 73.0278L271.851 66.7578L283.791 143.958C283.791 153.718 294.891 151.738 294.891 151.738Z" fill="#B28E46"/>
<path d="M254.46 46.5881L249.37 64.7781C249.37 64.7781 210.45 97.1081 161.35 82.7381C112.25 68.3681 116.44 105.488 116.44 105.488C107.3 87.8581 105.42 65.8981 114.04 48.0081C135.22 4.05814 219.63 -25.6819 254.45 46.5881H254.46Z" fill="#BF9955"/>
<path d="M254.46 46.5883L253.58 65.9983C253.58 65.9983 286.39 80.9383 272.09 128.948C272.06 129.058 280.79 127.568 280.84 127.458C280.84 127.458 302.14 121.288 312.95 89.6183C320.13 68.5883 310.65 39.5683 286.58 25.8083C284.36 24.1583 281.32 23.7283 278.15 23.9283C269.5 24.4783 261.85 29.7483 257.61 37.2983L254.46 46.5783V46.5883Z" fill="#BF9955"/>
<path d="M336.37 354.587C333.44 336.517 341.46 283.787 313.74 274.537C296.31 268.717 279.21 265.277 263.91 263.247C263.94 264.037 263.97 264.837 263.97 265.637C263.97 296.747 238.75 321.977 207.63 321.977C176.51 321.977 151.29 296.757 151.29 265.637C151.29 264.817 151.32 264.017 151.35 263.207C135.97 265.237 118.76 268.687 101.2 274.537C73.4801 283.777 81.5001 336.507 78.5601 354.587C69.5901 409.767 80.8901 582.667 84.3501 631.477C84.9401 639.837 88.4301 647.717 94.2101 653.787L105.5 665.627H317.45L325.85 659.297C334.63 652.687 339.9 642.427 340.18 631.447C341.59 576.667 345.08 408.307 336.35 354.587H336.37Z" fill="#F2F0F0"/>
<path d="M263.97 265.637C263.97 296.747 238.75 321.977 207.63 321.977C176.51 321.977 151.29 296.757 151.29 265.637" stroke="#DFC0FF" stroke-width="14.47" stroke-miterlimit="10" stroke-linecap="round"/>
<path d="M261.37 341.148H315.3V385.338C315.3 397.028 305.81 406.518 294.12 406.518H282.56C270.87 406.518 261.38 397.028 261.38 385.338V341.148H261.37Z" fill="#DFC0FF"/>
<path d="M169.37 115.367H244.05" stroke="#E29D7F" stroke-width="4.46" stroke-miterlimit="10" stroke-linecap="round"/>
<path d="M182.2 97.668H231.22" stroke="#E29D7F" stroke-width="4.46" stroke-miterlimit="10" stroke-linecap="round"/>
<path d="M219.85 172.84C219.85 178.55 214.3 183.18 207.46 183.18C200.62 183.18 195.07 178.55 195.07 172.84" fill="#EFB499"/>
<path d="M219.85 172.84C219.85 178.55 214.3 183.18 207.46 183.18C200.62 183.18 195.07 178.55 195.07 172.84" stroke="#E3815E" stroke-width="3.74" stroke-miterlimit="10" stroke-linecap="round"/>
<path d="M228.561 194.807C230.748 194.807 232.521 193.034 232.521 190.847C232.521 188.66 230.748 186.887 228.561 186.887C226.374 186.887 224.601 188.66 224.601 190.847C224.601 193.034 226.374 194.807 228.561 194.807Z" fill="#E3815E"/>
<path d="M186.36 194.807C188.547 194.807 190.32 193.034 190.32 190.847C190.32 188.66 188.547 186.887 186.36 186.887C184.173 186.887 182.4 188.66 182.4 190.847C182.4 193.034 184.173 194.807 186.36 194.807Z" fill="#E3815E"/>
<path d="M228.56 190.848C228.56 190.848 219.11 194.908 207.46 194.908C195.81 194.908 186.36 190.848 186.36 190.848" stroke="#E3815E" stroke-width="3.41" stroke-miterlimit="10" stroke-linecap="round"/>
<path d="M218.45 200.477C218.45 200.477 213.53 203.717 207.46 203.717C201.39 203.717 196.47 200.477 196.47 200.477" stroke="#E3815E" stroke-width="3.01" stroke-miterlimit="10" stroke-linecap="round"/>
</g>
</g>
<defs>
<clipPath id="clip0_66_158">
<rect width="400" height="400" fill="white"/>
</clipPath>
</defs>
</svg>
